# xmcd
#
# Track frame offsets:
#	150
#	19914
#	38359
#	56970
#	76734
#	98221
#	115051
#	135996
#	156980
#	179852
#	200721
#	222484
#	241521
#	260012
#	277651
#	297451
#	312862
#
# Disc length: 4426 seconds
#
# Revision: 1
# Processed by: cddbd v1.5.1PL0 Copyright (c) Steve Scherf et al.
# Submitted via: CDex 1.50Beta5
#
DISCID=f3114811
DTITLE=中嶋美智代 - Myこれ!クション 中嶋美智代ベスト
DYEAR=2002
DGENRE=Pop
TTITLE0=赤い花束
TTITLE1=ひなげし
TTITLE2=つめたいうわさ
TTITLE3=初恋通り
TTITLE4=とても小さな物語
TTITLE5=春 夏 秋
TTITLE6=思い出にもなれない
TTITLE7=日記の鍵貸します
TTITLE8=思われている
TTITLE9=きらわれないように
TTITLE10=恥ずかしい夢
TTITLE11=ちょっと痛い関係
TTITLE12=IKENAI 約束
TTITLE13=お手やわらかに
TTITLE14=木曜日
TTITLE15=恋をしましょ
TTITLE16=ずっと Zooっと
EXTD=
EXTT0=
EXTT1=
EXTT2=
EXTT3=
EXTT4=
EXTT5=
EXTT6=
EXTT7=
EXTT8=
EXTT9=
EXTT10=
EXTT11=
EXTT12=
EXTT13=
EXTT14=
EXTT15=
EXTT16=
PLAYORDER=
